<?xml version="1.0" encoding="utf-8"?>
<!-- Generator: Adobe Illustrator 18.0.0, SVG Export Plug-In . SVG Version: 6.00 Build 0)  -->
<!DOCTYPE svg PUBLIC "-//W3C//DTD SVG 1.1//EN" "http://www.w3.org/Graphics/SVG/1.1/DTD/svg11.dtd">
<svg version="1.1" id="loading" xmlns="http://www.w3.org/2000/svg" xmlns:xlink="http://www.w3.org/1999/xlink" x="0px" y="0px"
	 width="300px" height="300px" viewBox="0 0 200 200" enable-background="new 0 0 300 300" xml:space="preserve">
<g id="ring">
	<path d="M100,194.5c0,0-1.7,0-5,0.1c-3.3-0.1-8.1-0.2-14.2-1.2s-13.4-2.9-21.3-6.2c-4-1.7-8.1-3.7-12.2-6.3
		c-4.1-2.5-8.1-5.8-12.1-9.3c-7.9-7.2-15.3-16.3-20.9-27.1c-5.6-11-9.4-23.5-10.5-36.8c-1-13.3,0.7-27.2,5.4-40.4
		s12.5-25.4,22.6-35.5C41.9,21.8,54.1,14,67.3,9.2c13.2-4.7,27.2-6.4,40.4-5.4c13.3,1,25.9,4.8,36.7,10.5c10.9,5.6,20,13,27.1,20.9
		c0.9,1,1.7,2,2.6,3c0.8,1,1.6,2,2.4,3c0.8,1,1.5,2,2.3,3c0.7,1,1.4,2,2,3.1c2.6,4.1,4.6,8.3,6.3,12.2c3.4,7.9,5.2,15.2,6.3,21.3
		c1,6.1,1.1,10.9,1.3,14.1c0,3.3-0.1,5-0.1,5s-0.1-1.7-0.3-5c-0.4-3.2-0.9-8-2.3-13.9c-1.4-5.9-3.7-12.9-7.5-20.3
		c-1.9-3.7-4.1-7.6-6.8-11.4c-0.6-1-1.3-1.9-2.1-2.9c-0.7-1-1.4-2-2.1-2.9c-0.8-1-1.5-2-2.3-2.9s-1.6-1.9-2.5-2.9
		c-6.9-7.5-15.6-14.6-26-20s-22.4-9.1-35.1-10c-12.8-1-26.1,0.6-38.8,5.1c-12.6,4.5-24.4,12-34,21.6C25,44.3,17.5,56,13,68.6
		s-6.2,26-5.1,38.7c1,12.7,4.6,24.8,10,35.2s12.5,19.1,20,26c3.8,3.5,7.8,6.3,11.6,8.9c3.8,2.7,7.7,4.9,11.4,6.8
		c7.5,3.7,14.4,6.1,20.3,7.5c5.9,1.4,10.6,2,13.9,2.3C98.3,194.4,100,194.5,100,194.5z"/>
	
		<animateTransform  fill="remove" type="rotate" restart="always" calcMode="linear" additive="replace" accumulate="none" repeatCount="indefinite" dur="2s" to="360 100 100" from="0 100 100" attributeType="XML" attributeName="transform">
		</animateTransform>
</g>
<g id="J">
	<polygon stroke="#000000" stroke-width="2" stroke-miterlimit="10" points="72.2,70.5 111.1,112.5 112.1,113.6 110.6,113.6 
		33.2,113.6 41.1,129.5 166.8,129.5 	"/>
</g>
</svg>
